HIERARCHY
ROOT hip
{
	OFFSET 0.000000 0.000000 0.000000 
	CHANNELS 6 Xposition Yposition Zposition Xrotation Zrotation Yrotation
	JOINT abdomen
	{
		OFFSET 0.000000 3.402643 0.000000 
		CHANNELS 3 Xrotation Zrotation Yrotation
		JOINT chest
		{
			OFFSET 0.000000 8.438565 -0.680529 
			CHANNELS 3 Xrotation Zrotation Yrotation
			JOINT neck
			{
				OFFSET 0.000000 10.207942 -0.272212 
				CHANNELS 3 Xrotation Zrotation Yrotation
				JOINT head
				{
					OFFSET 0.000000 3.130431 0.000000 
					CHANNELS 3 Xrotation Zrotation Yrotation
					End Site
					{
						OFFSET 0.000000 3.130435 0.000000 
					}
				}
			}
			JOINT lCollar
			{
				OFFSET 3.470700 6.669187 -0.816635 
				CHANNELS 3 Yrotation Zrotation Xrotation
				JOINT lShldr
				{
					OFFSET 3.198488 0.000000 0.000000 
					CHANNELS 3 Zrotation Yrotation Xrotation
					JOINT lForeArm
					{
						OFFSET 10.139888 0.000000 0.000000 
						CHANNELS 3 Yrotation Zrotation Xrotation
						JOINT lHand
						{
							OFFSET 8.370511 0.000000 0.000000 
							CHANNELS 3 Zrotation Yrotation Xrotation
							End Site
							{
								OFFSET 4.083176 0.000000 0.000000 
							}
						}
					}
				}
			}
			JOINT rCollar
			{
				OFFSET -3.470700 6.669187 -0.816635 
				CHANNELS 3 Yrotation Zrotation Xrotation
				JOINT rShldr
				{
					OFFSET -3.198488 0.000000 0.000000 
					CHANNELS 3 Zrotation Yrotation Xrotation
					JOINT rForeArm
					{
						OFFSET -10.139888 0.000000 0.000000 
						CHANNELS 3 Yrotation Zrotation Xrotation
						JOINT rHand
						{
							OFFSET -8.370511 0.000000 0.000000 
							CHANNELS 3 Zrotation Yrotation Xrotation
							End Site
							{
								OFFSET -4.083176 0.000000 0.000000 
							}
						}
					}
				}
			}
		}
	}
	JOINT lThigh
	{
		OFFSET 5.308129 -1.633274 1.361059 
		CHANNELS 3 Xrotation Zrotation Yrotation
		JOINT lShin
		{
			OFFSET -2.041588 -20.007561 0.000000 
			CHANNELS 3 Xrotation Zrotation Yrotation
			JOINT lFoot
			{
				OFFSET 0.000000 -19.190928 -1.224953 
				CHANNELS 3 Xrotation Yrotation Zrotation
				End Site
				{
					OFFSET 0.000000 -2.449906 4.627600 
				}
			}
		}
	}
	JOINT rThigh
	{
		OFFSET -5.308129 -1.633274 1.361059 
		CHANNELS 3 Xrotation Zrotation Yrotation
		JOINT rShin
		{
			OFFSET 2.041588 -20.007561 0.000000 
			CHANNELS 3 Xrotation Zrotation Yrotation
			JOINT rFoot
			{
				OFFSET 0.000000 -19.190928 -1.224953 
				CHANNELS 3 Xrotation Yrotation Zrotation
				End Site
				{
					OFFSET 0.000000 -2.449906 4.627600 
				}
			}
		}
	}
}
MOTION
Frames: 6
Frame Time: 0.016667
0.015569 48.063644 0.833050 -3.230669 2.583143 -16.599022 0.000000 0.000000 0.000000 4.737214 -4.256207 4.190608 20.478119 -2.928900 -1.329883 -9.146431 -1.074628 -16.887936 1.451409 -25.000000 3.062197 -59.467602 1.794536 -4.282855 -4.495028 2.226399 9.377631 -13.162879 -6.574903 -2.386729 -1.647379 21.424892 1.885614 62.417751 -2.720634 -2.633822 6.253911 1.254619 10.250357 14.400685 8.756053 -4.647243 2.889211 -7.037663 2.562352 4.694857 -5.243117 5.805282 -5.444682 7.055494 9.427157 -12.105990 -15.123311 2.347921 25.259527 -1.175556 5.308191 -9.751827 2.566444 9.093107 
0.014988 48.063782 0.834345 -3.229787 2.583405 -16.579515 0.000000 0.000000 0.000000 4.746980 -4.256207 4.190609 20.466854 -2.928934 -1.300624 -9.138959 -1.065117 -16.917225 1.470906 -25.000000 3.062184 -59.467445 1.802947 -4.277895 -4.504280 2.225577 9.367783 -13.153757 -6.581761 -2.376122 -1.647379 21.424892 1.885614 62.427723 -2.724705 -2.642941 6.253911 1.254619 10.250357 14.412762 8.745022 -4.638968 2.897964 -7.044698 2.560438 4.682990 -5.239933 5.786647 -5.432755 7.055223 9.415559 -12.105993 -15.123311 2.347921 25.269657 -1.175602 5.298751 -9.738942 2.546742 9.093815 
0.013317 48.064308 0.838216 -3.235446 2.574436 -16.550253 0.000000 0.000000 0.000000 4.755301 -4.265893 4.201071 20.466631 -2.919171 -1.300624 -9.138959 -1.065117 -16.917225 1.470906 -25.000000 3.062184 -59.459133 1.801741 -4.312716 -4.513823 2.211280 9.406576 -13.151163 -6.595693 -2.392741 -1.641104 21.415152 1.898275 62.437492 -2.724254 -2.643404 6.255649 1.245009 10.250358 14.405137 8.732409 -4.632179 2.909358 -7.049776 2.548918 4.682909 -5.239816 5.776897 -5.449868 7.045201 9.444970 -12.104505 -15.111871 2.347680 25.280245 -1.166079 5.291285 -9.752742 2.537775 9.100941 
0.012757 48.064503 0.839487 -3.235008 2.574567 -16.540499 0.000000 0.000000 0.000000 4.755301 -4.265893 4.201071 20.456589 -2.928945 -1.290871 -9.129375 -1.065173 -16.907463 1.480655 -25.000000 3.062178 -59.449768 1.807439 -4.320810 -4.512600 2.200878 9.416305 -13.150064 -6.597915 -2.402188 -1.631346 21.415451 1.898281 62.447258 -2.723804 -2.643868 6.255649 1.245009 10.250358 14.405907 8.723015 -4.634738 2.909357 -7.049777 2.548918 4.694455 -5.242524 5.756536 -5.456635 7.052024 9.447720 -12.097928 -15.105677 2.356047 25.290468 -1.156335 5.293577 -9.736104 2.519939 9.112873 
0.011040 48.065006 0.843386 -3.233690 2.574957 -16.511230 0.000000 0.000000 0.000000 4.754583 -4.275632 4.201072 20.455589 -2.928968 -1.271366 -9.111964 -1.055610 -16.946335 1.466352 -25.000000 3.053337 -59.449768 1.807439 -4.320810 -4.512600 2.200878 9.416305 -13.138738 -6.609214 -2.410482 -1.621241 21.405994 1.898288 62.466999 -2.727417 -2.653455 6.276611 1.238875 10.249969 14.417296 8.705016 -4.638379 2.917212 -7.034409 2.529433 4.681393 -5.227802 5.747914 -5.447839 7.053776 9.426331 -12.103020 -15.100471 2.347435 25.290468 -1.156338 5.293577 -9.749148 2.498012 9.103418 
0.010460 48.065136 0.844701 -3.223485 2.575087 -16.501476 0.000000 0.000000 0.000000 4.754583 -4.275632 4.201072 20.444828 -2.928990 -1.251860 -9.114276 -1.046105 -16.975626 1.485850 -25.000000 3.053325 -59.440239 1.821548 -4.323939 -4.511374 2.190476 9.425658 -13.128513 -6.618291 -2.409333 -1.621241 21.405994 1.898288 62.466999 -2.727417 -2.653455 6.276611 1.238875 10.249969 14.414771 8.675718 -4.606102 2.916941 -7.033612 2.519719 4.681311 -5.227688 5.738165 -5.435927 7.045999 9.432727 -12.103020 -15.100471 2.347435 25.291187 -1.156436 5.274143 -9.751925 2.520566 9.092724 
